<?xml version="1.0" encoding="UTF-8"?>
<svg xmlns="http://www.w3.org/2000/svg" xmlns:xlink="http://www.w3.org/1999/xlink" width="16px" height="21px" viewBox="0 0 16 20" version="1.1">
<g id="surface1">
<path style=" stroke:none;fill-rule:evenodd;fill:rgb(0%,0%,0%);fill-opacity:1;" d="M 11.441406 17.953125 L 11.355469 17.679688 L 11.15625 13.03125 L 11.152344 13.03125 L 11.152344 12.144531 L 11.449219 12.144531 L 11.449219 12.125 L 11.453125 12.082031 L 11.453125 12.035156 L 11.449219 11.996094 L 11.449219 11.949219 L 11.4375 11.820312 L 11.433594 11.773438 L 11.425781 11.730469 L 11.421875 11.683594 L 11.390625 11.496094 L 11.375 11.394531 L 11.34375 11.199219 L 11.308594 11.007812 L 11.273438 10.8125 L 11.242188 10.621094 L 11.207031 10.425781 L 11.171875 10.234375 L 11.097656 9.847656 L 11.148438 10.050781 L 11.195312 10.253906 L 11.246094 10.453125 L 11.292969 10.648438 L 11.34375 10.84375 L 11.394531 11.035156 L 11.441406 11.222656 L 11.492188 11.40625 L 11.5 11.433594 L 11.511719 11.457031 L 11.519531 11.484375 L 11.53125 11.507812 L 11.542969 11.527344 L 11.554688 11.550781 L 11.566406 11.570312 L 11.582031 11.589844 L 11.597656 11.605469 L 11.609375 11.621094 L 11.628906 11.636719 L 11.644531 11.648438 L 11.664062 11.664062 L 11.683594 11.675781 L 11.703125 11.683594 L 11.722656 11.695312 L 11.722656 11.707031 L 11.726562 11.714844 L 11.726562 11.71875 L 11.734375 11.761719 L 11.746094 11.800781 L 11.753906 11.835938 L 11.765625 11.867188 L 11.78125 11.933594 L 11.804688 12 L 11.828125 12.074219 L 11.847656 12.140625 L 11.871094 12.214844 L 11.894531 12.285156 L 11.871094 12.308594 L 11.84375 12.328125 L 11.796875 12.375 L 11.777344 12.398438 L 11.753906 12.425781 L 11.714844 12.472656 L 11.65625 12.554688 L 11.609375 12.636719 L 11.59375 12.667969 L 11.578125 12.695312 L 11.566406 12.726562 L 11.554688 12.753906 L 11.519531 12.847656 L 11.503906 12.910156 L 11.496094 12.945312 L 11.492188 12.976562 L 11.484375 13.007812 L 11.480469 13.039062 L 11.476562 13.074219 L 11.476562 13.257812 L 11.480469 13.285156 L 11.488281 13.332031 L 11.492188 13.359375 L 11.5 13.40625 L 11.507812 13.429688 L 11.511719 13.453125 L 11.550781 13.570312 L 11.558594 13.589844 L 11.570312 13.613281 L 11.578125 13.636719 L 11.589844 13.65625 L 11.601562 13.679688 L 11.609375 13.699219 L 11.625 13.722656 L 11.648438 13.761719 L 11.660156 13.785156 L 11.675781 13.804688 L 11.6875 13.824219 L 11.734375 13.882812 L 11.75 13.898438 L 11.78125 13.9375 L 11.847656 14.003906 L 11.867188 14.019531 L 11.886719 14.039062 L 11.902344 14.050781 L 11.921875 14.070312 L 11.941406 14.082031 L 11.964844 14.097656 L 11.980469 14.113281 L 12.003906 14.128906 L 12.023438 14.140625 L 12.046875 14.152344 L 12.066406 14.167969 L 12.085938 14.179688 L 12.132812 14.203125 L 12.152344 14.214844 L 12.175781 14.226562 L 12.199219 14.234375 L 12.222656 14.246094 L 12.246094 14.253906 L 12.269531 14.265625 L 12.339844 14.289062 L 12.367188 14.296875 L 12.414062 14.3125 L 12.441406 14.316406 L 12.257812 13.628906 L 12.238281 13.609375 L 12.179688 13.539062 L 12.164062 13.511719 L 12.144531 13.484375 L 12.132812 13.457031 L 12.117188 13.429688 L 12.09375 13.375 L 12.070312 13.28125 L 12.0625 13.21875 L 12.058594 13.203125 L 12.058594 13.136719 L 12.0625 13.117188 L 12.0625 13.085938 L 12.066406 13.066406 L 12.070312 13.050781 L 12.070312 13.035156 L 12.078125 13.003906 L 12.085938 12.988281 L 12.089844 12.972656 L 12.09375 12.953125 L 12.097656 12.9375 L 12.105469 12.925781 L 12.109375 12.910156 L 12.132812 12.863281 L 12.140625 12.851562 L 12.15625 12.820312 L 12.164062 12.808594 L 12.175781 12.792969 L 12.183594 12.78125 L 12.195312 12.765625 L 12.203125 12.753906 L 12.25 12.707031 L 12.257812 12.691406 L 12.273438 12.679688 L 12.285156 12.671875 L 12.308594 12.648438 L 12.324219 12.640625 L 12.335938 12.628906 L 12.347656 12.621094 L 12.363281 12.609375 L 12.378906 12.601562 L 12.390625 12.59375 L 12.40625 12.582031 L 12.453125 12.558594 L 12.46875 12.554688 L 12.480469 12.546875 L 12.5 12.539062 L 12.515625 12.535156 L 12.53125 12.527344 L 12.5625 12.519531 L 12.582031 12.511719 L 12.613281 12.503906 L 12.632812 12.5 L 12.648438 12.5 L 12.667969 12.496094 L 12.683594 12.492188 L 12.722656 12.492188 L 12.738281 12.488281 L 12.792969 12.488281 L 12.8125 12.492188 L 12.847656 12.492188 L 12.863281 12.496094 L 12.882812 12.5 L 12.898438 12.5 L 12.914062 12.503906 L 12.933594 12.507812 L 12.949219 12.511719 L 12.96875 12.519531 L 13 12.527344 L 13.015625 12.535156 L 13.03125 12.539062 L 13.046875 12.546875 L 13.0625 12.550781 L 13.140625 12.589844 L 13.152344 12.601562 L 13.167969 12.609375 L 13.179688 12.617188 L 13.195312 12.628906 L 13.207031 12.636719 L 13.21875 12.648438 L 13.234375 12.660156 L 13.246094 12.667969 L 13.316406 12.738281 L 13.324219 12.753906 L 13.347656 12.777344 L 13.355469 12.792969 L 13.363281 12.804688 L 13.375 12.820312 L 13.382812 12.832031 L 13.40625 12.878906 L 13.414062 12.890625 L 13.417969 12.90625 L 13.425781 12.921875 L 13.429688 12.9375 L 13.4375 12.953125 L 13.445312 12.984375 L 13.453125 13 L 13.457031 13.019531 L 13.457031 13.035156 L 13.464844 13.066406 L 13.46875 13.085938 L 13.46875 13.226562 L 13.464844 13.242188 L 13.464844 13.261719 L 13.460938 13.277344 L 13.457031 13.296875 L 13.441406 13.359375 L 13.433594 13.378906 L 13.429688 13.394531 L 13.421875 13.410156 L 13.617188 14.054688 L 13.644531 14.035156 L 13.667969 14.011719 L 13.695312 13.988281 L 13.742188 13.941406 L 13.761719 13.914062 L 13.785156 13.890625 L 13.824219 13.835938 L 13.847656 13.8125 L 13.867188 13.785156 L 13.882812 13.753906 L 13.902344 13.726562 L 13.917969 13.699219 L 13.929688 13.667969 L 13.945312 13.640625 L 13.960938 13.609375 L 14.007812 13.484375 L 14.015625 13.453125 L 14.023438 13.417969 L 14.039062 13.355469 L 14.042969 13.320312 L 14.050781 13.285156 L 14.050781 13.253906 L 14.054688 13.21875 L 14.054688 13.089844 L 14.050781 13.066406 L 14.050781 13.042969 L 14.027344 12.902344 L 14.019531 12.878906 L 14.015625 12.855469 L 14.007812 12.832031 L 14 12.8125 L 13.984375 12.765625 L 13.976562 12.746094 L 13.96875 12.722656 L 13.957031 12.703125 L 13.949219 12.679688 L 13.925781 12.640625 L 13.917969 12.617188 L 13.90625 12.597656 L 13.890625 12.578125 L 13.855469 12.519531 L 13.839844 12.5 L 13.828125 12.480469 L 13.8125 12.460938 L 13.800781 12.445312 L 13.785156 12.425781 L 13.769531 12.410156 L 13.753906 12.390625 L 13.738281 12.375 L 13.71875 12.359375 L 13.703125 12.339844 L 13.6875 12.324219 L 13.667969 12.308594 L 13.652344 12.292969 L 13.613281 12.261719 L 13.597656 12.246094 L 13.578125 12.234375 L 13.558594 12.21875 L 13.539062 12.207031 L 13.519531 12.191406 L 13.480469 12.167969 L 13.457031 12.152344 L 13.417969 12.128906 L 13.394531 12.121094 L 13.375 12.109375 L 13.328125 12.085938 L 13.308594 12.078125 L 13.285156 12.066406 L 13.144531 12.019531 L 13.132812 11.957031 L 13.117188 11.894531 L 13.09375 11.761719 L 13.070312 11.636719 L 13.039062 11.511719 L 13.050781 11.503906 L 13.082031 11.488281 L 13.09375 11.476562 L 13.109375 11.46875 L 13.121094 11.460938 L 13.144531 11.4375 L 13.15625 11.429688 L 13.167969 11.417969 L 13.179688 11.402344 L 13.1875 11.390625 L 13.199219 11.378906 L 13.207031 11.363281 L 13.214844 11.351562 L 13.230469 11.320312 L 13.234375 11.304688 L 13.242188 11.289062 L 13.246094 11.273438 L 13.253906 11.253906 L 13.257812 11.234375 L 13.257812 11.21875 L 13.261719 11.199219 L 13.265625 11.175781 L 13.265625 11.0625 L 13.261719 11.039062 L 13.257812 11.011719 L 13.234375 10.863281 L 13.222656 10.785156 L 13.191406 10.636719 L 13.175781 10.566406 L 13.15625 10.492188 L 13.140625 10.417969 L 13.101562 10.269531 L 13.066406 10.121094 L 13.050781 10.046875 L 13.03125 9.972656 L 13.015625 9.894531 L 13 9.820312 L 12.964844 9.667969 L 12.949219 9.617188 L 12.933594 9.570312 L 12.902344 9.46875 L 12.886719 9.421875 L 12.867188 9.375 L 12.847656 9.324219 L 12.828125 9.277344 L 12.804688 9.226562 L 12.785156 9.179688 L 12.738281 9.085938 L 12.714844 9.035156 L 12.691406 8.988281 L 12.664062 8.941406 L 12.640625 8.894531 L 12.613281 8.847656 L 12.5625 8.75 L 12.507812 8.65625 L 12.449219 8.5625 L 12.390625 8.464844 L 12.335938 8.371094 L 12.273438 8.273438 L 12.175781 8.109375 L 12.078125 7.953125 L 11.980469 7.800781 L 11.886719 7.652344 L 11.699219 7.363281 L 11.605469 7.222656 L 11.507812 7.082031 L 11.5 7.066406 L 11.488281 7.054688 L 11.476562 7.039062 L 11.46875 7.027344 L 11.445312 7.003906 L 11.433594 6.988281 L 11.421875 6.980469 L 11.386719 6.945312 L 11.371094 6.9375 L 11.347656 6.917969 L 11.320312 6.898438 L 11.265625 6.867188 L 11.234375 6.855469 L 11.203125 6.839844 L 11.175781 6.828125 L 11.140625 6.820312 L 11.109375 6.808594 L 11.078125 6.800781 L 11.042969 6.792969 L 11.011719 6.789062 L 10.976562 6.78125 L 10.941406 6.78125 L 10.871094 6.773438 L 10.835938 6.773438 L 10.800781 6.769531 L 10.765625 6.769531 L 10.730469 6.773438 L 10.695312 6.773438 L 10.660156 6.777344 L 10.621094 6.78125 L 10.550781 6.789062 L 10.515625 6.796875 L 10.511719 6.769531 L 10.503906 6.742188 L 10.5 6.714844 L 10.492188 6.691406 L 10.488281 6.667969 L 10.480469 6.648438 L 10.472656 6.625 L 10.460938 6.605469 L 10.453125 6.589844 L 10.417969 6.542969 L 10.40625 6.53125 L 10.390625 6.519531 L 10.378906 6.511719 L 10.363281 6.5 L 10.347656 6.492188 L 10.335938 6.484375 L 10.320312 6.476562 L 10.304688 6.472656 L 10.285156 6.46875 L 10.269531 6.464844 L 10.253906 6.457031 L 10.234375 6.457031 L 10.21875 6.453125 L 10.199219 6.449219 L 10.144531 6.449219 L 10.105469 6.445312 L 9.285156 6.445312 L 9.289062 6.433594 L 9.296875 6.421875 L 9.304688 6.398438 L 9.308594 6.382812 L 9.3125 6.371094 L 9.316406 6.355469 L 9.316406 6.328125 L 9.320312 6.316406 L 9.320312 6.195312 L 9.316406 6.167969 L 9.316406 6.105469 L 9.3125 6.074219 L 9.3125 6.046875 L 9.316406 6.015625 L 9.316406 5.988281 L 9.445312 5.953125 L 9.484375 5.9375 L 9.527344 5.921875 L 9.566406 5.90625 L 9.601562 5.890625 L 9.640625 5.871094 L 9.710938 5.832031 L 9.75 5.8125 L 9.78125 5.792969 L 9.816406 5.769531 L 9.878906 5.722656 L 9.910156 5.695312 L 9.941406 5.671875 L 9.996094 5.617188 L 10.050781 5.554688 L 10.074219 5.523438 L 10.101562 5.492188 L 10.125 5.460938 L 10.148438 5.425781 L 10.207031 5.320312 L 10.246094 5.242188 L 10.261719 5.199219 L 10.277344 5.160156 L 10.277344 2.917969 L 10.273438 2.886719 L 10.253906 2.75 L 10.246094 2.722656 L 10.238281 2.699219 L 10.234375 2.671875 L 10.226562 2.648438 L 10.21875 2.621094 L 10.207031 2.597656 L 10.199219 2.574219 L 10.1875 2.550781 L 10.179688 2.527344 L 10.167969 2.503906 L 10.15625 2.484375 L 10.144531 2.460938 L 10.121094 2.421875 L 10.105469 2.398438 L 10.09375 2.378906 L 10.0625 2.339844 L 10.046875 2.324219 L 10.03125 2.304688 L 9.960938 2.234375 L 9.941406 2.21875 L 9.921875 2.207031 L 9.902344 2.1875 L 9.882812 2.175781 L 9.863281 2.160156 L 9.84375 2.148438 L 9.820312 2.132812 L 9.796875 2.121094 L 9.777344 2.105469 L 9.707031 2.070312 L 9.679688 2.058594 L 9.65625 2.046875 L 9.628906 2.035156 L 9.605469 2.027344 L 9.578125 2.015625 L 9.523438 2 L 9.496094 1.988281 L 9.441406 1.972656 L 9.410156 1.964844 L 9.382812 1.960938 L 9.320312 1.945312 L 9.289062 1.941406 L 9.261719 1.933594 L 9.226562 1.929688 L 9.195312 1.921875 L 9.132812 1.914062 L 9.0625 1.90625 L 9.0625 1.136719 L 9.066406 1.132812 L 9.0625 1.128906 L 9.0625 1.121094 L 9.058594 1.113281 L 9.050781 1.109375 L 9.046875 1.101562 L 9.039062 1.097656 L 9.035156 1.089844 L 9.027344 1.082031 L 9.015625 1.078125 L 9.003906 1.070312 L 8.972656 1.054688 L 8.945312 1.042969 L 8.921875 1.035156 L 8.890625 1.023438 L 8.863281 1.015625 L 8.808594 1.007812 L 8.796875 1.003906 L 7.007812 1.003906 L 6.984375 1.007812 L 6.964844 1.007812 L 6.941406 1.011719 L 6.921875 1.015625 L 6.90625 1.023438 L 6.886719 1.027344 L 6.875 1.03125 L 6.867188 1.035156 L 6.855469 1.042969 L 6.847656 1.046875 L 6.835938 1.050781 L 6.820312 1.066406 L 6.8125 1.070312 L 6.796875 1.085938 L 6.792969 1.09375 L 6.785156 1.101562 L 6.78125 1.109375 L 6.773438 1.121094 L 6.769531 1.128906 L 6.761719 1.136719 L 6.761719 1.882812 L 6.621094 1.90625 L 6.554688 1.921875 L 6.484375 1.9375 L 6.421875 1.953125 L 6.386719 1.960938 L 6.359375 1.96875 L 6.296875 1.988281 L 6.265625 2 L 6.238281 2.007812 L 6.207031 2.019531 L 6.179688 2.027344 L 6.042969 2.085938 L 6.019531 2.097656 L 5.992188 2.109375 L 5.96875 2.121094 L 5.945312 2.136719 L 5.898438 2.160156 L 5.875 2.175781 L 5.835938 2.207031 L 5.8125 2.21875 L 5.753906 2.265625 L 5.738281 2.28125 L 5.722656 2.300781 L 5.703125 2.316406 L 5.6875 2.335938 L 5.671875 2.351562 L 5.65625 2.371094 L 5.644531 2.386719 L 5.628906 2.40625 L 5.59375 2.464844 L 5.585938 2.488281 L 5.5625 2.527344 L 5.546875 2.574219 L 5.539062 2.59375 L 5.535156 2.617188 L 5.527344 2.640625 L 5.515625 2.710938 L 5.511719 2.738281 L 5.511719 5.195312 L 5.519531 5.226562 L 5.53125 5.253906 L 5.542969 5.285156 L 5.554688 5.3125 L 5.566406 5.34375 L 5.582031 5.371094 L 5.59375 5.398438 L 5.609375 5.425781 L 5.628906 5.457031 L 5.644531 5.484375 L 5.703125 5.566406 L 5.726562 5.589844 L 5.75 5.617188 L 5.828125 5.695312 L 5.859375 5.71875 L 5.886719 5.742188 L 5.917969 5.765625 L 6.023438 5.835938 L 6.058594 5.855469 L 6.097656 5.878906 L 6.269531 5.957031 L 6.320312 5.976562 L 6.367188 5.992188 L 6.363281 6.027344 L 6.363281 6.097656 L 6.359375 6.128906 L 6.359375 6.191406 L 6.363281 6.222656 L 6.363281 6.25 L 6.375 6.332031 L 6.382812 6.355469 L 6.386719 6.378906 L 6.398438 6.402344 L 6.40625 6.425781 L 6.414062 6.4375 L 6.417969 6.449219 L 5.71875 6.445312 L 5.679688 6.445312 L 5.640625 6.449219 L 5.585938 6.449219 L 5.570312 6.453125 L 5.550781 6.457031 L 5.535156 6.457031 L 5.519531 6.464844 L 5.5 6.46875 L 5.46875 6.476562 L 5.421875 6.5 L 5.410156 6.511719 L 5.394531 6.519531 L 5.371094 6.542969 L 5.324219 6.605469 L 5.316406 6.625 L 5.308594 6.648438 L 5.300781 6.667969 L 5.285156 6.714844 L 5.273438 6.796875 L 5.238281 6.789062 L 5.203125 6.785156 L 5.164062 6.78125 L 5.09375 6.773438 L 5.058594 6.773438 L 5.019531 6.769531 L 4.984375 6.769531 L 4.949219 6.773438 L 4.914062 6.773438 L 4.84375 6.78125 L 4.808594 6.78125 L 4.777344 6.789062 L 4.742188 6.792969 L 4.710938 6.800781 L 4.675781 6.808594 L 4.644531 6.820312 L 4.613281 6.828125 L 4.582031 6.839844 L 4.554688 6.855469 L 4.523438 6.867188 L 4.496094 6.882812 L 4.464844 6.898438 L 4.453125 6.910156 L 4.441406 6.917969 L 4.425781 6.925781 L 4.414062 6.9375 L 4.402344 6.945312 L 4.390625 6.957031 L 4.375 6.96875 L 4.363281 6.980469 L 4.351562 6.988281 L 4.34375 7.003906 L 4.308594 7.039062 L 4.300781 7.054688 L 4.289062 7.066406 L 4.277344 7.082031 L 4.089844 7.363281 L 3.902344 7.652344 L 3.804688 7.800781 L 3.710938 7.953125 L 3.613281 8.109375 L 3.511719 8.273438 L 3.394531 8.464844 L 3.335938 8.5625 L 3.199219 8.796875 L 3.171875 8.847656 L 3.144531 8.894531 L 3.074219 9.035156 L 3.050781 9.085938 L 2.980469 9.226562 L 2.960938 9.277344 L 2.941406 9.324219 L 2.921875 9.375 L 2.882812 9.46875 L 2.851562 9.570312 L 2.835938 9.617188 L 2.824219 9.667969 L 2.808594 9.71875 L 2.796875 9.769531 L 2.789062 9.820312 L 2.773438 9.894531 L 2.753906 9.972656 L 2.738281 10.046875 L 2.71875 10.121094 L 2.648438 10.417969 L 2.628906 10.492188 L 2.613281 10.566406 L 2.597656 10.636719 L 2.566406 10.785156 L 2.550781 10.863281 L 2.527344 11.011719 L 2.523438 11.039062 L 2.523438 11.089844 L 2.519531 11.113281 L 2.519531 11.15625 L 2.523438 11.175781 L 2.523438 11.199219 L 2.527344 11.21875 L 2.53125 11.234375 L 2.539062 11.273438 L 2.542969 11.289062 L 2.574219 11.351562 L 2.582031 11.363281 L 2.589844 11.378906 L 2.597656 11.390625 L 2.609375 11.402344 L 2.621094 11.417969 L 2.628906 11.429688 L 2.644531 11.4375 L 2.667969 11.460938 L 2.691406 11.476562 L 2.707031 11.488281 L 2.722656 11.496094 L 2.734375 11.503906 L 2.75 11.511719 L 2.71875 11.636719 L 2.707031 11.699219 L 2.691406 11.761719 L 2.667969 11.894531 L 2.644531 12.019531 L 2.503906 12.066406 L 2.480469 12.078125 L 2.460938 12.085938 L 2.414062 12.109375 L 2.394531 12.121094 L 2.371094 12.128906 L 2.351562 12.140625 L 2.328125 12.152344 L 2.308594 12.167969 L 2.269531 12.191406 L 2.25 12.207031 L 2.230469 12.21875 L 2.210938 12.234375 L 2.191406 12.246094 L 2.152344 12.277344 L 2.136719 12.292969 L 2.117188 12.308594 L 2.101562 12.324219 L 2.082031 12.339844 L 2.066406 12.359375 L 2.035156 12.390625 L 2.019531 12.410156 L 2.003906 12.425781 L 1.988281 12.445312 L 1.972656 12.460938 L 1.960938 12.480469 L 1.945312 12.5 L 1.933594 12.519531 L 1.917969 12.539062 L 1.871094 12.617188 L 1.859375 12.640625 L 1.851562 12.660156 L 1.839844 12.679688 L 1.828125 12.703125 L 1.820312 12.722656 L 1.8125 12.746094 L 1.800781 12.765625 L 1.785156 12.8125 L 1.78125 12.832031 L 1.765625 12.878906 L 1.757812 12.925781 L 1.75 12.949219 L 1.738281 13.019531 L 1.738281 13.042969 L 1.734375 13.066406 L 1.734375 13.117188 L 1.730469 13.152344 L 1.730469 13.183594 L 1.734375 13.21875 L 1.734375 13.253906 L 1.738281 13.285156 L 1.742188 13.320312 L 1.75 13.355469 L 1.753906 13.386719 L 1.761719 13.417969 L 1.769531 13.453125 L 1.78125 13.484375 L 1.789062 13.515625 L 1.824219 13.609375 L 1.839844 13.640625 L 1.855469 13.667969 L 1.871094 13.699219 L 1.886719 13.726562 L 1.90625 13.753906 L 1.921875 13.785156 L 1.941406 13.8125 L 1.960938 13.835938 L 1.980469 13.863281 L 2.003906 13.890625 L 2.023438 13.914062 L 2.046875 13.941406 L 2.117188 14.011719 L 2.144531 14.035156 L 2.167969 14.054688 L 2.367188 13.410156 L 2.351562 13.378906 L 2.347656 13.359375 L 2.339844 13.328125 L 2.332031 13.3125 L 2.328125 13.296875 L 2.328125 13.277344 L 2.324219 13.261719 L 2.320312 13.242188 L 2.320312 13.226562 L 2.316406 13.207031 L 2.316406 13.121094 L 2.320312 13.101562 L 2.320312 13.085938 L 2.324219 13.066406 L 2.324219 13.050781 L 2.332031 13.019531 L 2.335938 13 L 2.34375 12.96875 L 2.351562 12.953125 L 2.355469 12.9375 L 2.363281 12.921875 L 2.367188 12.90625 L 2.375 12.890625 L 2.382812 12.878906 L 2.40625 12.832031 L 2.414062 12.820312 L 2.421875 12.804688 L 2.433594 12.792969 L 2.441406 12.777344 L 2.453125 12.765625 L 2.460938 12.753906 L 2.472656 12.738281 L 2.496094 12.714844 L 2.503906 12.703125 L 2.527344 12.679688 L 2.542969 12.667969 L 2.554688 12.660156 L 2.578125 12.636719 L 2.59375 12.628906 L 2.621094 12.609375 L 2.632812 12.601562 L 2.648438 12.589844 L 2.710938 12.558594 L 2.722656 12.550781 L 2.738281 12.546875 L 2.753906 12.539062 L 2.769531 12.535156 L 2.789062 12.527344 L 2.820312 12.519531 L 2.835938 12.511719 L 2.855469 12.507812 L 2.886719 12.5 L 2.90625 12.5 L 2.921875 12.496094 L 2.941406 12.492188 L 2.976562 12.492188 L 2.992188 12.488281 L 3.046875 12.488281 L 3.066406 12.492188 L 3.101562 12.492188 L 3.121094 12.496094 L 3.136719 12.5 L 3.15625 12.5 L 3.1875 12.507812 L 3.207031 12.511719 L 3.222656 12.519531 L 3.238281 12.523438 L 3.257812 12.527344 L 3.273438 12.535156 L 3.289062 12.539062 L 3.320312 12.554688 L 3.335938 12.558594 L 3.382812 12.582031 L 3.394531 12.59375 L 3.410156 12.601562 L 3.464844 12.640625 L 3.476562 12.648438 L 3.488281 12.660156 L 3.503906 12.671875 L 3.515625 12.679688 L 3.539062 12.707031 L 3.5625 12.730469 L 3.582031 12.753906 L 3.621094 12.808594 L 3.628906 12.820312 L 3.644531 12.851562 L 3.65625 12.863281 L 3.660156 12.878906 L 3.683594 12.925781 L 3.6875 12.9375 L 3.695312 12.953125 L 3.699219 12.972656 L 3.722656 13.066406 L 3.722656 13.085938 L 3.726562 13.101562 L 3.726562 13.21875 L 3.722656 13.25 L 3.714844 13.28125 L 3.710938 13.3125 L 3.703125 13.34375 L 3.691406 13.375 L 3.683594 13.402344 L 3.667969 13.429688 L 3.65625 13.457031 L 3.609375 13.539062 L 3.550781 13.609375 L 3.527344 13.628906 L 3.34375 14.316406 L 3.347656 14.316406 L 3.371094 14.3125 L 3.394531 14.304688 L 3.421875 14.296875 L 3.492188 14.273438 L 3.519531 14.265625 L 3.542969 14.253906 L 3.566406 14.246094 L 3.589844 14.234375 L 3.609375 14.226562 L 3.679688 14.191406 L 3.699219 14.179688 L 3.722656 14.167969 L 3.742188 14.152344 L 3.765625 14.140625 L 3.785156 14.128906 L 3.84375 14.082031 L 3.863281 14.070312 L 3.882812 14.050781 L 3.902344 14.039062 L 3.9375 14.003906 L 3.957031 13.988281 L 3.972656 13.96875 L 3.988281 13.953125 L 4.007812 13.9375 L 4.039062 13.898438 L 4.054688 13.882812 L 4.085938 13.84375 L 4.097656 13.824219 L 4.113281 13.804688 L 4.125 13.785156 L 4.140625 13.761719 L 4.164062 13.722656 L 4.175781 13.699219 L 4.1875 13.679688 L 4.199219 13.65625 L 4.207031 13.636719 L 4.21875 13.613281 L 4.226562 13.589844 L 4.238281 13.570312 L 4.269531 13.476562 L 4.273438 13.453125 L 4.28125 13.429688 L 4.285156 13.40625 L 4.292969 13.382812 L 4.296875 13.359375 L 4.300781 13.332031 L 4.304688 13.308594 L 4.304688 13.285156 L 4.308594 13.257812 L 4.308594 13.234375 L 4.3125 13.210938 L 4.3125 13.105469 L 4.308594 13.074219 L 4.304688 13.039062 L 4.296875 12.976562 L 4.289062 12.945312 L 4.28125 12.910156 L 4.257812 12.816406 L 4.234375 12.753906 L 4.222656 12.726562 L 4.207031 12.695312 L 4.195312 12.667969 L 4.179688 12.636719 L 4.148438 12.582031 L 4.128906 12.554688 L 4.113281 12.527344 L 4.074219 12.472656 L 4.054688 12.449219 L 4.03125 12.425781 L 4.011719 12.398438 L 3.941406 12.328125 L 3.917969 12.308594 L 3.894531 12.285156 L 3.9375 12.140625 L 3.960938 12.074219 L 3.984375 12 L 4.023438 11.867188 L 4.03125 11.835938 L 4.042969 11.800781 L 4.050781 11.761719 L 4.0625 11.71875 L 4.0625 11.695312 L 4.085938 11.683594 L 4.105469 11.675781 L 4.125 11.664062 L 4.140625 11.648438 L 4.160156 11.636719 L 4.207031 11.589844 L 4.21875 11.570312 L 4.234375 11.550781 L 4.246094 11.527344 L 4.257812 11.507812 L 4.265625 11.484375 L 4.277344 11.457031 L 4.285156 11.433594 L 4.292969 11.40625 L 4.34375 11.222656 L 4.394531 11.035156 L 4.441406 10.84375 L 4.542969 10.453125 L 4.589844 10.253906 L 4.640625 10.050781 L 4.6875 9.847656 L 4.617188 10.234375 L 4.582031 10.425781 L 4.546875 10.621094 L 4.511719 10.8125 L 4.476562 11.007812 L 4.445312 11.199219 L 4.410156 11.394531 L 4.378906 11.597656 L 4.363281 11.691406 L 4.355469 11.785156 L 4.347656 11.832031 L 4.34375 11.878906 L 4.339844 11.921875 L 4.339844 11.96875 L 4.335938 12.011719 L 4.335938 12.101562 L 4.339844 12.144531 L 4.632812 12.144531 L 4.632812 13.03125 L 4.429688 17.679688 L 4.34375 17.953125 L 4.34375 19.316406 L 7.597656 19.316406 L 7.597656 15.558594 L 8.191406 15.558594 L 8.191406 19.316406 L 11.441406 19.316406 Z M 11.441406 17.953125 "/>
</g>
</svg>
